<svg width="38" height="38" viewBox="0 0 38 38" fill="none" xmlns="http://www.w3.org/2000/svg">
<circle cx="19" cy="19" r="18.25" stroke="#702624" stroke-width="1.5"/>
<g clip-path="url(#clip0_14_515)">
<path d="M24.75 18.5C23.8281 18.5011 22.9222 18.2591 22.1236 17.7984C21.3251 17.3378 20.662 16.6747 20.2014 15.8761C19.7408 15.0775 19.4989 14.1716 19.5 13.2497C19.5011 12.3278 19.7453 11.4225 20.2079 10.625H12.7118L12.675 10.317C12.5996 9.67877 12.2927 9.09038 11.8124 8.66334C11.3322 8.2363 10.7119 8.00027 10.0693 8H9.875C9.64294 8 9.42038 8.09219 9.25628 8.25628C9.09219 8.42038 9 8.64294 9 8.875C9 9.10706 9.09219 9.32962 9.25628 9.49372C9.42038 9.65781 9.64294 9.75 9.875 9.75H10.0693C10.2836 9.75003 10.4904 9.82871 10.6506 9.97113C10.8107 10.1135 10.9131 10.3098 10.9381 10.5226L12.1421 20.7601C12.2671 21.8248 12.7787 22.8066 13.5797 23.519C14.3807 24.2315 15.4154 24.625 16.4874 24.625H25.625C25.8571 24.625 26.0796 24.5328 26.2437 24.3687C26.4078 24.2046 26.5 23.9821 26.5 23.75C26.5 23.5179 26.4078 23.2954 26.2437 23.1313C26.0796 22.9672 25.8571 22.875 25.625 22.875H16.4874C15.9456 22.8737 15.4176 22.7047 14.9757 22.3914C14.5337 22.0781 14.1996 21.6357 14.019 21.125H24.4499C25.4756 21.1251 26.4688 20.7647 27.2558 20.1069C28.0429 19.4491 28.5738 18.5356 28.7558 17.5261L28.964 16.372C28.4773 17.0319 27.8424 17.5682 27.1104 17.9379C26.3785 18.3075 25.57 18.5 24.75 18.5Z" fill="#702624"/>
<path d="M15.125 29.0005C16.0915 29.0005 16.875 28.217 16.875 27.2505C16.875 26.284 16.0915 25.5005 15.125 25.5005C14.1585 25.5005 13.375 26.284 13.375 27.2505C13.375 28.217 14.1585 29.0005 15.125 29.0005Z" fill="#702624"/>
<path d="M23.875 29.0005C24.8415 29.0005 25.625 28.217 25.625 27.2505C25.625 26.284 24.8415 25.5005 23.875 25.5005C22.9085 25.5005 22.125 26.284 22.125 27.2505C22.125 28.217 22.9085 29.0005 23.875 29.0005Z" fill="#702624"/>
<path d="M22.1249 14.1255H23.8749V15.8755C23.8749 16.1076 23.9671 16.3302 24.1312 16.4943C24.2953 16.6584 24.5179 16.7505 24.7499 16.7505C24.982 16.7505 25.2045 16.6584 25.3686 16.4943C25.5327 16.3302 25.6249 16.1076 25.6249 15.8755V14.1255H27.3749C27.607 14.1255 27.8295 14.0334 27.9936 13.8693C28.1577 13.7052 28.2499 13.4826 28.2499 13.2505C28.2499 13.0185 28.1577 12.7959 27.9936 12.6318C27.8295 12.4677 27.607 12.3755 27.3749 12.3755H25.6249V10.6255C25.6249 10.3935 25.5327 10.1709 25.3686 10.0068C25.2045 9.84274 24.982 9.75055 24.7499 9.75055C24.5179 9.75055 24.2953 9.84274 24.1312 10.0068C23.9671 10.1709 23.8749 10.3935 23.8749 10.6255V12.3755H22.1249C21.8929 12.3755 21.6703 12.4677 21.5062 12.6318C21.3421 12.7959 21.2499 13.0185 21.2499 13.2505C21.2499 13.4826 21.3421 13.7052 21.5062 13.8693C21.6703 14.0334 21.8929 14.1255 22.1249 14.1255Z" fill="#702624"/>
</g>
<defs>
<clipPath id="clip0_14_515">
<rect width="21" height="21" fill="white" transform="translate(9 8)"/>
</clipPath>
</defs>
</svg>
