<svg width="38" height="38" viewBox="0 0 38 38" fill="none" xmlns="http://www.w3.org/2000/svg">
<circle cx="19" cy="19" r="18.25" stroke="#702624" stroke-width="1.5"/>
<path d="M12.0002 27.9999C12.2654 27.9999 12.5197 27.8946 12.7073 27.707C12.8948 27.5195 13.0001 27.2652 13.0001 26.9999V19.9999C13.0001 19.7347 12.8948 19.4804 12.7073 19.2928C12.5197 19.1053 12.2654 18.9999 12.0002 18.9999C11.7349 18.9999 11.4806 19.1053 11.293 19.2928C11.1055 19.4804 11.0002 19.7347 11.0002 19.9999V26.9999C11.0002 27.2652 11.1055 27.5195 11.293 27.707C11.4806 27.8946 11.7349 27.9999 12.0002 27.9999Z" fill="#702624"/>
<path d="M15.9998 18V27C15.9998 27.2652 16.1052 27.5196 16.2927 27.7071C16.4803 27.8946 16.7346 28 16.9999 28C17.2651 28 17.5194 27.8946 17.707 27.7071C17.8945 27.5196 17.9999 27.2652 17.9999 27V18C17.9999 17.7348 17.8945 17.4804 17.707 17.2929C17.5194 17.1054 17.2651 17 16.9999 17C16.7346 17 16.4803 17.1054 16.2927 17.2929C16.1052 17.4804 15.9998 17.7348 15.9998 18Z" fill="#702624"/>
<path d="M21 21V27C21 27.2652 21.1054 27.5196 21.2929 27.7071C21.4804 27.8946 21.7348 28 22 28C22.2652 28 22.5196 27.8946 22.7071 27.7071C22.8947 27.5196 23 27.2652 23 27V21C23 20.7348 22.8947 20.4804 22.7071 20.2929C22.5196 20.1054 22.2652 20 22 20C21.7348 20 21.4804 20.1054 21.2929 20.2929C21.1054 20.4804 21 20.7348 21 21Z" fill="#702624"/>
<path d="M26.0002 16.9999V26.9999C26.0002 27.2652 26.1055 27.5195 26.2931 27.707C26.4806 27.8946 26.735 27.9999 27.0002 27.9999C27.2654 27.9999 27.5198 27.8946 27.7073 27.707C27.8948 27.5195 28.0002 27.2652 28.0002 26.9999V16.9999C28.0002 16.7347 27.8948 16.4804 27.7073 16.2928C27.5198 16.1053 27.2654 15.9999 27.0002 15.9999C26.735 15.9999 26.4806 16.1053 26.2931 16.2928C26.1055 16.4804 26.0002 16.7347 26.0002 16.9999Z" fill="#702624"/>
<path d="M11.9998 16.9999C12.265 16.9999 12.5193 16.8945 12.7068 16.7069L16.2928 13.1209C16.4834 12.9393 16.7366 12.8381 16.9998 12.8381C17.2631 12.8381 17.5162 12.9393 17.7068 13.1209L19.8788 15.2929C20.4414 15.8553 21.2043 16.1713 21.9998 16.1713C22.7953 16.1713 23.5583 15.8553 24.1208 15.2929L29.7068 9.70692C29.889 9.51832 29.9898 9.26571 29.9875 9.00352C29.9852 8.74132 29.8801 8.49051 29.6947 8.3051C29.5092 8.11969 29.2584 8.01452 28.9962 8.01224C28.734 8.00997 28.4814 8.11076 28.2928 8.29292L22.7068 13.8779C22.5193 14.0654 22.265 14.1707 21.9998 14.1707C21.7347 14.1707 21.4804 14.0654 21.2928 13.8779L19.1208 11.7069C18.5583 11.1445 17.7953 10.8286 16.9998 10.8286C16.2043 10.8286 15.4414 11.1445 14.8788 11.7069L11.2928 15.2929C11.153 15.4328 11.0578 15.6109 11.0192 15.8049C10.9807 15.9988 11.0005 16.1999 11.0762 16.3826C11.1518 16.5653 11.28 16.7214 11.4444 16.8313C11.6088 16.9412 11.8021 16.9999 11.9998 16.9999Z" fill="#702624"/>
</svg>
