<svg width="26" height="17" viewBox="0 0 26 17" fill="none" xmlns="http://www.w3.org/2000/svg">
<path d="M2.375 16.7812V15.4688C4.47917 14.2812 5.85417 13.2083 6.5 12.25C7.16667 11.2708 7.5 10.1458 7.5 8.875C7.5 8.29167 7.39583 7.85417 7.1875 7.5625C6.95833 7.27083 6.70833 7.125 6.4375 7.125C6.22917 7.125 5.89583 7.20833 5.4375 7.375C4.97917 7.54167 4.52083 7.625 4.0625 7.625C3.1875 7.625 2.4375 7.3125 1.8125 6.6875C1.1875 6.0625 0.875 5.30208 0.875 4.40625C0.875 3.40625 1.27083 2.53125 2.0625 1.78125C2.875 1.03125 3.85417 0.65625 5 0.65625C6.375 0.65625 7.61458 1.25 8.71875 2.4375C9.84375 3.625 10.4062 5.125 10.4062 6.9375C10.4062 9.125 9.69792 11.125 8.28125 12.9375C6.88542 14.75 4.91667 16.0312 2.375 16.7812ZM17.2812 16.7812V15.4688C19.0938 14.5312 20.3958 13.5417 21.1875 12.5C22 11.4375 22.4062 10.2917 22.4062 9.0625C22.4062 8.33333 22.3021 7.82292 22.0938 7.53125C21.8854 7.26042 21.6562 7.125 21.4062 7.125C21.1354 7.125 20.7708 7.20833 20.3125 7.375C19.8333 7.54167 19.4167 7.625 19.0625 7.625C18.2083 7.625 17.4583 7.30208 16.8125 6.65625C16.1875 6.01042 15.875 5.23958 15.875 4.34375C15.875 3.34375 16.2604 2.47917 17.0312 1.75C17.8021 1.02083 18.75 0.65625 19.875 0.65625C21.2917 0.65625 22.5625 1.27083 23.6875 2.5C24.8125 3.70833 25.375 5.19792 25.375 6.96875C25.375 9.05208 24.6771 11 23.2812 12.8125C21.9062 14.6042 19.9062 15.9271 17.2812 16.7812Z" fill="#E0C8C8"/>
</svg>
