<svg width="40" height="40" viewBox="0 0 40 40" fill="none" xmlns="http://www.w3.org/2000/svg">
<g clip-path="url(#clip0_14_237)">
<path d="M30.9683 3.56805L20.5266 0.0863779C20.1848 -0.0274906 19.8152 -0.0274906 19.4733 0.0863779L9.03165 3.56805C7.37149 4.11951 5.92734 5.18014 4.90439 6.59923C3.88144 8.01832 3.33171 9.72369 3.33332 11.473V20.0014C3.33332 32.6064 18.6666 39.568 19.3233 39.858C19.5363 39.9527 19.7669 40.0016 20 40.0016C20.2331 40.0016 20.4636 39.9527 20.6766 39.858C21.3333 39.568 36.6666 32.6064 36.6666 20.0014V11.473C36.6683 9.72369 36.1185 8.01832 35.0956 6.59923C34.0726 5.18014 32.6285 4.11951 30.9683 3.56805ZM27.8633 16.1964L20.7433 23.3164C20.452 23.6097 20.1052 23.8422 19.7233 24.0004C19.3413 24.1586 18.9317 24.2394 18.5183 24.238H18.4633C18.0415 24.2316 17.6253 24.1396 17.24 23.9678C16.8547 23.7959 16.5083 23.5476 16.2216 23.238L12.3783 19.238C12.2119 19.0836 12.0787 18.8968 11.9871 18.6891C11.8954 18.4813 11.8472 18.2571 11.8453 18.03C11.8434 17.803 11.8879 17.578 11.9762 17.3687C12.0644 17.1595 12.1944 16.9705 12.3583 16.8134C12.5221 16.6562 12.7164 16.5342 12.9291 16.4548C13.1418 16.3754 13.3685 16.3403 13.5953 16.3517C13.8221 16.363 14.0441 16.4206 14.2478 16.5209C14.4516 16.6211 14.6326 16.762 14.78 16.9347L18.52 20.8347L25.5 13.8347C25.8143 13.5311 26.2353 13.3631 26.6723 13.3669C27.1093 13.3707 27.5273 13.546 27.8363 13.855C28.1454 14.164 28.3206 14.5821 28.3244 15.019C28.3282 15.456 28.1602 15.877 27.8566 16.1914L27.8633 16.1964Z" fill="#DE342F"/>
</g>
<defs>
<clipPath id="clip0_14_237">
<rect width="40" height="40" fill="white"/>
</clipPath>
</defs>
</svg>
