<svg width="40" height="40" viewBox="0 0 40 40" fill="none" xmlns="http://www.w3.org/2000/svg">
<g clip-path="url(#clip0_14_119)">
<path d="M8.33344 23.3334C9.25391 23.3334 10.0001 22.5872 10.0001 21.6667C10.0001 20.7462 9.25391 20 8.33344 20C7.41297 20 6.66678 20.7462 6.66678 21.6667C6.66678 22.5872 7.41297 23.3334 8.33344 23.3334Z" fill="#DE342F"/>
<path d="M1.66667 16.6668C2.58714 16.6668 3.33333 15.9206 3.33333 15.0002C3.33333 14.0797 2.58714 13.3335 1.66667 13.3335C0.746192 13.3335 0 14.0797 0 15.0002C0 15.9206 0.746192 16.6668 1.66667 16.6668Z" fill="#DE342F"/>
<path d="M8.33344 9.99983C9.25391 9.99983 10.0001 9.25364 10.0001 8.33317C10.0001 7.41269 9.25391 6.6665 8.33344 6.6665C7.41297 6.6665 6.66678 7.41269 6.66678 8.33317C6.66678 9.25364 7.41297 9.99983 8.33344 9.99983Z" fill="#DE342F"/>
<path d="M1.66667 3.33333C2.58714 3.33333 3.33333 2.58714 3.33333 1.66667C3.33333 0.746192 2.58714 0 1.66667 0C0.746192 0 0 0.746192 0 1.66667C0 2.58714 0.746192 3.33333 1.66667 3.33333Z" fill="#DE342F"/>
<path d="M38.3335 23.3334C39.254 23.3334 40.0002 22.5872 40.0002 21.6667C40.0002 20.7462 39.254 20 38.3335 20C37.413 20 36.6668 20.7462 36.6668 21.6667C36.6668 22.5872 37.413 23.3334 38.3335 23.3334Z" fill="#DE342F"/>
<path d="M31.6667 16.6668C32.5872 16.6668 33.3334 15.9206 33.3334 15.0002C33.3334 14.0797 32.5872 13.3335 31.6667 13.3335C30.7462 13.3335 30 14.0797 30 15.0002C30 15.9206 30.7462 16.6668 31.6667 16.6668Z" fill="#DE342F"/>
<path d="M38.3335 9.99983C39.254 9.99983 40.0002 9.25364 40.0002 8.33317C40.0002 7.41269 39.254 6.6665 38.3335 6.6665C37.413 6.6665 36.6668 7.41269 36.6668 8.33317C36.6668 9.25364 37.413 9.99983 38.3335 9.99983Z" fill="#DE342F"/>
<path d="M31.6667 3.33333C32.5872 3.33333 33.3334 2.58714 33.3334 1.66667C33.3334 0.746192 32.5872 0 31.6667 0C30.7462 0 30 0.746192 30 1.66667C30 2.58714 30.7462 3.33333 31.6667 3.33333Z" fill="#DE342F"/>
<path d="M23.3335 39.9998C24.254 39.9998 25.0002 39.2536 25.0002 38.3332C25.0002 37.4127 24.254 36.6665 23.3335 36.6665C22.413 36.6665 21.6668 37.4127 21.6668 38.3332C21.6668 39.2536 22.413 39.9998 23.3335 39.9998Z" fill="#DE342F"/>
<path d="M16.6667 33.3334C17.5871 33.3334 18.3333 32.5872 18.3333 31.6667C18.3333 30.7462 17.5871 30 16.6667 30C15.7462 30 15 30.7462 15 31.6667C15 32.5872 15.7462 33.3334 16.6667 33.3334Z" fill="#DE342F"/>
<path d="M23.3335 26.6668C24.254 26.6668 25.0002 25.9207 25.0002 25.0002C25.0002 24.0797 24.254 23.3335 23.3335 23.3335C22.413 23.3335 21.6668 24.0797 21.6668 25.0002C21.6668 25.9207 22.413 26.6668 23.3335 26.6668Z" fill="#DE342F"/>
<path d="M16.6667 19.9999C17.5871 19.9999 18.3333 19.2537 18.3333 18.3332C18.3333 17.4127 17.5871 16.6665 16.6667 16.6665C15.7462 16.6665 15 17.4127 15 18.3332C15 19.2537 15.7462 19.9999 16.6667 19.9999Z" fill="#DE342F"/>
<path d="M24.9998 5C24.1158 5 23.2679 4.64881 22.6428 4.02369C22.0177 3.39857 21.6665 2.55072 21.6665 1.66667C21.6665 1.22464 21.4909 0.800716 21.1784 0.488155C20.8658 0.175595 20.4419 0 19.9998 0C19.5578 0 19.1339 0.175595 18.8213 0.488155C18.5088 0.800716 18.3332 1.22464 18.3332 1.66667C18.3332 2.55072 17.982 3.39857 17.3569 4.02369C16.7318 4.64881 15.8839 5 14.9999 5C14.5578 5 14.1339 5.17559 13.8213 5.48816C13.5088 5.80072 13.3332 6.22464 13.3332 6.66667C13.3332 7.10869 13.5088 7.53262 13.8213 7.84518C14.1339 8.15774 14.5578 8.33333 14.9999 8.33333C15.8839 8.33333 16.7318 8.68452 17.3569 9.30964C17.982 9.93476 18.3332 10.7826 18.3332 11.6667C18.3332 12.1087 18.5088 12.5326 18.8213 12.8452C19.1339 13.1577 19.5578 13.3333 19.9998 13.3333C20.4419 13.3333 20.8658 13.1577 21.1784 12.8452C21.4909 12.5326 21.6665 12.1087 21.6665 11.6667C21.6665 10.7826 22.0177 9.93476 22.6428 9.30964C23.2679 8.68452 24.1158 8.33333 24.9998 8.33333C25.4419 8.33333 25.8658 8.15774 26.1783 7.84518C26.4909 7.53262 26.6665 7.10869 26.6665 6.66667C26.6665 6.22464 26.4909 5.80072 26.1783 5.48816C25.8658 5.17559 25.4419 5 24.9998 5Z" fill="#DE342F"/>
<path d="M11.6667 31.6665C10.7826 31.6665 9.93476 31.3153 9.30964 30.6902C8.68452 30.0651 8.33333 29.2172 8.33333 28.3332C8.33333 27.8911 8.15774 27.4672 7.84518 27.1547C7.53262 26.8421 7.10869 26.6665 6.66667 26.6665C6.22464 26.6665 5.80072 26.8421 5.48816 27.1547C5.17559 27.4672 5 27.8911 5 28.3332C5 29.2172 4.64881 30.0651 4.02369 30.6902C3.39857 31.3153 2.55072 31.6665 1.66667 31.6665C1.22464 31.6665 0.800716 31.8421 0.488155 32.1546C0.175595 32.4672 0 32.8911 0 33.3332C0 33.7752 0.175595 34.1991 0.488155 34.5117C0.800716 34.8242 1.22464 34.9998 1.66667 34.9998C2.55072 34.9998 3.39857 35.351 4.02369 35.9761C4.64881 36.6013 5 37.4491 5 38.3331C5 38.7752 5.17559 39.1991 5.48816 39.5117C5.80072 39.8242 6.22464 39.9998 6.66667 39.9998C7.10869 39.9998 7.53262 39.8242 7.84518 39.5117C8.15774 39.1991 8.33333 38.7752 8.33333 38.3331C8.33333 37.4491 8.68452 36.6013 9.30964 35.9761C9.93476 35.351 10.7826 34.9998 11.6667 34.9998C12.1087 34.9998 12.5326 34.8242 12.8452 34.5117C13.1577 34.1991 13.3333 33.7752 13.3333 33.3332C13.3333 32.8911 13.1577 32.4672 12.8452 32.1546C12.5326 31.8421 12.1087 31.6665 11.6667 31.6665Z" fill="#DE342F"/>
<path d="M38.3335 31.6665C37.4494 31.6665 36.6016 31.3153 35.9764 30.6902C35.3513 30.0651 35.0001 29.2172 35.0001 28.3332C35.0001 27.8911 34.8245 27.4672 34.512 27.1547C34.1994 26.8421 33.7755 26.6665 33.3335 26.6665C32.8914 26.6665 32.4675 26.8421 32.155 27.1547C31.8424 27.4672 31.6668 27.8911 31.6668 28.3332C31.6668 29.2172 31.3156 30.0651 30.6905 30.6902C30.0654 31.3153 29.2175 31.6665 28.3335 31.6665C27.8914 31.6665 27.4675 31.8421 27.155 32.1546C26.8424 32.4672 26.6668 32.8911 26.6668 33.3332C26.6668 33.7752 26.8424 34.1991 27.155 34.5117C27.4675 34.8242 27.8914 34.9998 28.3335 34.9998C29.2175 34.9998 30.0654 35.351 30.6905 35.9761C31.3156 36.6013 31.6668 37.4491 31.6668 38.3331C31.6668 38.7752 31.8424 39.1991 32.155 39.5117C32.4675 39.8242 32.8914 39.9998 33.3335 39.9998C33.7755 39.9998 34.1994 39.8242 34.512 39.5117C34.8245 39.1991 35.0001 38.7752 35.0001 38.3331C35.0001 37.4491 35.3513 36.6013 35.9764 35.9761C36.6016 35.351 37.4494 34.9998 38.3335 34.9998C38.7755 34.9998 39.1994 34.8242 39.512 34.5117C39.8245 34.1991 40.0001 33.7752 40.0001 33.3332C40.0001 32.8911 39.8245 32.4672 39.512 32.1546C39.1994 31.8421 38.7755 31.6665 38.3335 31.6665Z" fill="#DE342F"/>
</g>
<defs>
<clipPath id="clip0_14_119">
<rect width="40" height="40" fill="white"/>
</clipPath>
</defs>
</svg>
