<svg width="40" height="40" viewBox="0 0 40 40" fill="none" xmlns="http://www.w3.org/2000/svg">
<g clip-path="url(#clip0_14_115)">
<path d="M27.6417 16.0264L25.35 9.99972H29.3867C30.9215 10.0034 32.4341 10.3673 33.8027 11.062C35.1713 11.7567 36.3578 12.7629 37.2667 13.9997L38.5784 15.7914C39.1374 16.554 39.5448 17.4168 39.7784 18.3331H28.2534C28.1351 17.544 27.9299 16.7704 27.6417 16.0264ZM20 6.66639C20.4421 6.66639 20.866 6.49079 21.1786 6.17823C21.4911 5.86567 21.6667 5.44175 21.6667 4.99972V1.66639C21.6667 1.22436 21.4911 0.800436 21.1786 0.487875C20.866 0.175315 20.4421 -0.000280245 20 -0.000280245C19.558 -0.000280245 19.1341 0.175315 18.8215 0.487875C18.509 0.800436 18.3334 1.22436 18.3334 1.66639V4.99972C18.3334 5.44175 18.509 5.86567 18.8215 6.17823C19.1341 6.49079 19.558 6.66639 20 6.66639ZM24.5367 17.2381L21.785 9.99972H18.23L15.4334 17.4197C15.3261 17.7185 15.237 18.0235 15.1667 18.3331H24.8684C24.7851 17.9603 24.6742 17.5943 24.5367 17.2381ZM27.5884 6.49972C27.7851 6.59866 27.9996 6.65761 28.2193 6.67318C28.439 6.68874 28.6596 6.66061 28.8683 6.5904C29.0771 6.5202 29.2699 6.40931 29.4355 6.26416C29.6011 6.119 29.7364 5.94245 29.8334 5.74472L31.5 2.41139C31.6976 2.01577 31.73 1.55787 31.5899 1.13841C31.4499 0.718957 31.149 0.372306 30.7534 0.17472C30.3578 -0.0228665 29.8999 -0.0552029 29.4804 0.0848243C29.0609 0.224851 28.7143 0.525772 28.5167 0.921386L26.85 4.25472C26.7505 4.45049 26.6907 4.664 26.6739 4.88298C26.6572 5.10196 26.6839 5.32209 26.7525 5.53071C26.8211 5.73933 26.9303 5.93234 27.0737 6.09864C27.2172 6.26493 27.3921 6.40124 27.5884 6.49972ZM19.98 31.4781L24.6234 22.7231C24.7412 22.3779 24.8342 22.0248 24.9017 21.6664H15C15.075 22.0957 15.1865 22.5178 15.3334 22.9281L19.98 31.4781ZM12.3334 16.2147L14.6667 9.99972H10.6384C9.13508 10.0036 7.65276 10.3527 6.30563 11.0199C4.95851 11.6871 3.78255 12.6547 2.86838 13.8481L1.50004 15.6381C0.89715 16.4396 0.466471 17.3571 0.235043 18.3331H11.735C11.8632 17.6087 12.0636 16.899 12.3334 16.2147ZM28.2817 21.6664C28.1767 22.4628 27.9845 23.2453 27.7084 23.9997C27.6834 24.0664 21.4484 35.7897 21.4434 35.7914C21.3076 36.0551 21.1021 36.2766 20.8492 36.4316C20.5963 36.5867 20.3057 36.6694 20.0091 36.6707C19.7125 36.6721 19.4211 36.5921 19.1668 36.4394C18.9125 36.2867 18.7049 36.0672 18.5667 35.8047C18.5667 35.8047 12.2767 24.2847 12.25 24.2131C11.9515 23.3908 11.7523 22.5359 11.6567 21.6664H0.20171C0.509941 23.1577 1.28519 24.5121 2.41504 25.5331L15.7317 38.3781C16.9013 39.4211 18.4146 39.9961 19.9817 39.9931C21.5821 39.9899 23.125 39.3965 24.315 38.3264L37.5417 25.6047C38.7007 24.5682 39.4979 23.1882 39.8167 21.6664H28.2817ZM10.175 5.74472C10.3726 6.14144 10.7197 6.44342 11.14 6.58423C11.5602 6.72504 12.0192 6.69314 12.4159 6.49555C12.8126 6.29797 13.1146 5.95088 13.2554 5.53064C13.3962 5.1104 13.3643 4.65144 13.1667 4.25472L11.5 0.921386C11.4022 0.725498 11.2667 0.550798 11.1014 0.40726C10.936 0.263722 10.744 0.154159 10.5364 0.0848243C10.1169 -0.0552029 9.65899 -0.0228665 9.26338 0.17472C8.86776 0.372306 8.56684 0.718957 8.42681 1.13841C8.28679 1.55787 8.31912 2.01577 8.51671 2.41139L10.175 5.74472Z" fill="#DE342F"/>
</g>
<defs>
<clipPath id="clip0_14_115">
<rect width="40" height="40" fill="white"/>
</clipPath>
</defs>
</svg>
