<svg width="24" height="21" viewBox="0 0 24 21" fill="none" xmlns="http://www.w3.org/2000/svg">
<path d="M1.91018 9.11438C1.91018 9.11438 12.0825 4.82996 15.6105 3.32131C16.9629 2.7179 21.5492 0.78682 21.5492 0.78682C21.5492 0.78682 23.6661 -0.0579538 23.4896 1.99372C23.4308 2.83858 22.9604 5.79541 22.4901 8.9937C21.7844 13.5196 21.02 18.4678 21.02 18.4678C21.02 18.4678 20.9024 19.8557 19.9029 20.0971C18.9033 20.3385 17.2568 19.2523 16.9629 19.0109C16.7276 18.8299 12.5529 16.1144 11.0241 14.7868C10.6125 14.4247 10.1421 13.7006 11.0829 12.8558C13.1997 10.8644 15.7281 8.39029 17.2568 6.82134C17.9625 6.09716 18.668 4.40753 15.7281 6.45921C11.5533 9.41612 7.43735 12.192 7.43735 12.192C7.43735 12.192 6.49653 12.7954 4.73256 12.2523C2.96851 11.7092 0.910525 10.9851 0.910525 10.9851C0.910525 10.9851 -0.500584 10.0799 1.91018 9.11438Z" fill="#575150"/>
</svg>
