<svg width="38" height="38" viewBox="0 0 38 38" fill="none" xmlns="http://www.w3.org/2000/svg">
<circle cx="19" cy="19" r="18.25" stroke="#702624" stroke-width="1.5"/>
<path d="M8.28747 17.839C8.28747 17.839 17.5753 13.8877 20.7964 12.4963C22.0313 11.9398 26.2188 10.1589 26.2188 10.1589C26.2188 10.1589 28.1516 9.37979 27.9905 11.272C27.9367 12.0511 27.5073 14.7781 27.0778 17.7277C26.4335 21.9018 25.7356 26.4653 25.7356 26.4653C25.7356 26.4653 25.6282 27.7453 24.7156 27.9679C23.8029 28.1905 22.2996 27.1888 22.0313 26.9662C21.8165 26.7993 18.0047 24.2948 16.6089 23.0704C16.2331 22.7365 15.8036 22.0687 16.6625 21.2896C18.5953 19.453 20.9038 17.1712 22.2996 15.7243C22.9439 15.0564 23.5881 13.4981 20.9038 15.3903C17.0921 18.1173 13.334 20.6774 13.334 20.6774C13.334 20.6774 12.475 21.2339 10.8644 20.733C9.25378 20.2322 7.37474 19.5643 7.37474 19.5643C7.37474 19.5643 6.08634 18.7295 8.28747 17.839Z" fill="#702624"/>
</svg>
