<svg width="26" height="22" viewBox="0 0 26 22" fill="none" xmlns="http://www.w3.org/2000/svg">
<path d="M25.4094 3.08409C24.5838 3.4397 23.7159 3.68733 22.8271 3.82085C23.2426 3.74955 23.8541 3.0009 24.0975 2.69788C24.4672 2.24079 24.749 1.71899 24.9286 1.15898C24.9286 1.11739 24.9701 1.05797 24.9286 1.02827C24.9076 1.01682 24.8842 1.01083 24.8603 1.01083C24.8365 1.01083 24.813 1.01682 24.792 1.02827C23.8269 1.55138 22.7997 1.95064 21.7348 2.2166C21.6977 2.22795 21.6582 2.22897 21.6205 2.21955C21.5829 2.21013 21.5485 2.19062 21.5211 2.16313C21.4382 2.06433 21.349 1.97105 21.2539 1.88387C20.8196 1.49436 20.3268 1.17556 19.7936 0.939141C19.0738 0.643588 18.2964 0.515591 17.52 0.564815C16.7666 0.612436 16.031 0.814685 15.3591 1.15898C14.6974 1.52197 14.1159 2.01511 13.6494 2.60875C13.1588 3.21976 12.8045 3.92886 12.6106 4.68834C12.4506 5.41076 12.4324 6.15741 12.5571 6.88676C12.5571 7.01153 12.5571 7.02936 12.4503 7.01153C8.21762 6.38766 4.74483 4.88441 1.90723 1.65808C1.78256 1.51548 1.71726 1.51548 1.61634 1.65808C0.381572 3.53565 0.981149 6.50649 2.52461 7.97408C2.73239 8.17016 2.9461 8.36029 3.17168 8.53854C2.46401 8.48826 1.77363 8.29631 1.14143 7.97408C1.0227 7.89684 0.957403 7.93843 0.951467 8.08103C0.934638 8.27873 0.934638 8.4775 0.951467 8.6752C1.07533 9.62266 1.44839 10.5202 2.03248 11.276C2.61658 12.0318 3.39076 12.6188 4.27585 12.977C4.49161 13.0695 4.71644 13.1392 4.94666 13.1849C4.29154 13.314 3.61962 13.3341 2.95797 13.2444C2.8155 13.2146 2.76207 13.2919 2.8155 13.4285C3.68815 15.8052 5.58186 16.5301 6.97097 16.9341C7.16094 16.9638 7.3509 16.9638 7.56461 17.0114C7.56461 17.0114 7.56461 17.0114 7.529 17.047C7.11938 17.7957 5.46313 18.3007 4.70327 18.5621C3.31633 19.0608 1.8376 19.2514 0.3697 19.1207C0.13818 19.085 0.0847525 19.091 0.0253885 19.1207C-0.0339755 19.1504 0.0253885 19.2157 0.0906889 19.2752C0.387509 19.4712 0.684329 19.6435 0.993021 19.8099C1.912 20.3116 2.88355 20.7101 3.88998 20.9982C9.10214 22.4361 14.9673 21.3785 18.8794 17.4867C21.9544 14.4327 23.0349 10.22 23.0349 6.00145C23.0349 5.84102 23.2308 5.74596 23.3436 5.66277C24.1215 5.05606 24.8074 4.33956 25.3797 3.53565C25.4789 3.41582 25.5297 3.26324 25.5222 3.10785V3.10785C25.5222 3.01873 25.5222 3.03655 25.4094 3.08409Z" fill="#575150"/>
</svg>
